# File exported by Houdini 18.5.596 (www.sidefx.com)
# 42 points
# 120 vertices
# 40 primitives
# Bounds: [-0.0230084173, -0.0355793238, -0.0243187007] to [0.0230084136, 0.035579443, 0.0243186988]
g 
v -0.0173731763 0.0336807966 -0.0168635398
v -0.0127645265 0.0280634165 -0.0203291308
v -0.0202366263 0.0317115784 -0.0205929298
v -0.0150046945 0.0265257359 -0.021734871
v -0.0230084173 0.0294481516 -0.0243187007
v -0.0104583651 0.0293697119 -0.0187896714
v -0.0143300761 0.0350655317 -0.0131413816
v -0.00802022591 0.0302209854 -0.01699364
v -0.0110156666 0.035579443 -0.00941923074
v -0.00538775511 0.0303817987 -0.0148109403
v -0.00733827613 0.0349243879 -0.00570068136
v -0.00249130651 0.0296247005 -0.012107851
v -0.00342257693 0.0331628323 -0.002021892
v 0.000639781356 0.0279457569 -0.00906146131
v 0.000614125282 0.0303543806 0.00157739967
v 0.00398353487 0.0253410339 -0.00584162027
v 0.0046508126 0.0265610218 0.00506827794
v 0.00751792639 0.0218064785 -0.00262177177
v 0.00855917484 0.0218456984 0.00840738788
v 0.0112209693 0.0173348188 0.000421009958
v 0.0121632442 0.0164325237 0.0115477294
v 0.0148067065 0.0121724606 0.00329753943
v 0.0152870044 0.0105639696 0.0144351088
v 0.0179927945 0.00656282902 0.00601146929
v 0.0177434832 0.00446808338 0.0170153193
v 0.0205079317 0.000753164291 0.00856639072
v 0.0193603523 -0.00162017345 0.0192377791
v 0.0220624842 -0.00501739979 0.0109731406
v 0.0202769525 -0.00756692886 0.0210771784
v 0.0228397623 -0.0105836391 0.0131016411
v 0.0206252635 -0.0132431984 0.0225154497
v 0.0230084136 -0.0157929659 0.0148398392
v 0.0205519348 -0.0185192823 0.0235272869
v 0.0227554329 -0.0204768181 0.0160576776
v 0.0201926231 -0.0232540369 0.0240910389
v 0.0222457945 -0.0244857073 0.0166394897
v 0.0196170062 -0.0275847912 0.024315089
v 0.0215528645 -0.0279848576 0.0167406797
v 0.0207315832 -0.0311427116 0.0165238492
v 0.0189020634 -0.0316488743 0.0243186988
v 0.019851651 -0.0341318846 0.0161444098
v 0.0181137808 -0.0355793238 0.0242066681
vt 0.600098014 0.0839840025 0
vt 0.653809011 0.053222999 0
vt 0.600098014 0.053222999 0
vt 0.653809011 0.0224610008 0
vt 0.600098014 0.0224610008 0
vt 0.653809011 0.0839840025 0
vt 0.600098014 0.115234002 0
vt 0.653809011 0.115234002 0
vt 0.600098014 0.145996004 0
vt 0.653809011 0.145996004 0
vt 0.600098014 0.169921994 0
vt 0.653809011 0.169921994 0
vt 0.600098014 0.193847999 0
vt 0.653809011 0.193847999 0
vt 0.600098014 0.217773005 0
vt 0.653809011 0.217773005 0
vt 0.600098014 0.241698995 0
vt 0.653809011 0.241698995 0
vt 0.600098014 0.270507991 0
vt 0.653809011 0.270507991 0
vt 0.600098014 0.299315989 0
vt 0.653809011 0.299315989 0
vt 0.600098014 0.328125 0
vt 0.653809011 0.328125 0
vt 0.600098014 0.357421994 0
vt 0.653809011 0.357421994 0
vt 0.600098014 0.38330099 0
vt 0.653809011 0.38330099 0
vt 0.600098014 0.409179986 0
vt 0.653809011 0.409179986 0
vt 0.600098014 0.435059011 0
vt 0.653809011 0.435059011 0
vt 0.600098014 0.46142599 0
vt 0.653809011 0.46142599 0
vt 0.600098014 0.512938976 0
vt 0.653809011 0.512938976 0
vt 0.600098014 0.564697027 0
vt 0.653809011 0.564697027 0
vt 0.653809011 0.61669898 0
vt 0.600098014 0.61669898 0
vt 0.653809011 0.668456972 0
vt 0.600098014 0.668456972 0
vn 0.356745988 0.684752047 -0.635488927
vn 0.356745988 0.684752047 -0.635488927
vn 0.356745988 0.684752047 -0.635488927
vn 0.434953988 0.588806987 -0.681264997
vn 0.434953988 0.588806987 -0.681264997
vn 0.434953988 0.588806987 -0.681264997
vn 0.325209975 0.76808095 -0.55162394
vn 0.325209975 0.76808095 -0.551624954
vn 0.325209975 0.76808095 -0.55162394
vn 0.197454989 0.754665971 -0.62569195
vn 0.197454989 0.754665971 -0.62569195
vn 0.197454989 0.754665971 -0.62569195
vn 0.364024967 0.822152913 -0.437664926
vn 0.364024967 0.822152913 -0.437664926
vn 0.364024967 0.822152913 -0.437664926
vn 0.243736982 0.436607003 -0.866006017
vn 0.243736982 0.436607003 -0.866006017
vn 0.243736982 0.436607003 -0.866006017
vn 0.167577013 0.613555133 -0.771665037
vn 0.167577013 0.613555133 -0.771665037
vn 0.167577013 0.613555133 -0.771665037
vn 0.327476948 0.827570021 -0.455945969
vn 0.327476948 0.827570021 -0.455945969
vn 0.327476948 0.827570021 -0.455945969
vn 0.464550942 0.828197002 -0.313499957
vn 0.464550942 0.828197002 -0.313499957
vn 0.464550942 0.828197002 -0.313499957
vn 0.49405095 0.815688014 -0.300942957
vn 0.49405095 0.815688014 -0.300942957
vn 0.49405095 0.815688014 -0.300942957
vn 0.56783402 0.791709065 -0.225299999
vn 0.567834973 0.791709065 -0.225299999
vn 0.567834973 0.791709065 -0.225299999
vn 0.613107026 0.761439025 -0.210501984
vn 0.613107026 0.761439025 -0.210501984
vn 0.613107026 0.761439025 -0.210501984
vn 0.658075929 0.734705925 -0.164748967
vn 0.658075929 0.734705925 -0.164748967
vn 0.658075929 0.734705925 -0.164748967
vn 0.69649893 0.700205982 -0.156845987
vn 0.69649893 0.700205982 -0.156845987
vn 0.69649893 0.700205982 -0.156845987
vn 0.732876956 0.669745028 -0.11971999
vn 0.732876956 0.669745028 -0.11971999
vn 0.732876956 0.669745028 -0.11971999
vn 0.754006922 0.646114051 -0.118367001
vn 0.754006922 0.646114051 -0.118367001
vn 0.754006922 0.646114051 -0.118367001
vn 0.793747902 0.603341997 -0.07708399
vn 0.793747902 0.603341997 -0.07708399
vn 0.793747902 0.603341997 -0.07708399
vn 0.79302299 0.604303062 -0.0770170018
vn 0.79302299 0.604303062 -0.0770170018
vn 0.79302299 0.604303062 -0.0770170018
vn 0.839232028 0.543101013 -0.0270319972
vn 0.839232028 0.543101013 -0.0270319972
vn 0.839232028 0.543101013 -0.0270319972
vn 0.827442884 0.56101203 -0.0245739985
vn 0.827442884 0.56101203 -0.0245739985
vn 0.827442884 0.56101203 -0.0245739985
vn 0.875709951 0.481787026 0.0318149999
vn 0.875709951 0.481787026 0.0318149999
vn 0.875709951 0.481787026 0.0318149999
vn 0.861392021 0.506662071 0.0360269994
vn 0.861392021 0.506662071 0.0360269994
vn 0.861392021 0.506662071 0.0360269994
vn 0.895586967 0.432872027 0.102695003
vn 0.895586967 0.432872027 0.102695003
vn 0.895586967 0.432872027 0.102695003
vn 0.907952011 0.407424033 0.0981309935
vn 0.907952011 0.407424033 0.0981309935
vn 0.907952011 0.407424033 0.0981309935
vn 0.935375869 0.310330003 0.16960898
vn 0.935375869 0.310330003 0.16960898
vn 0.935375869 0.310330003 0.16960898
vn 0.93087095 0.322427005 0.171812981
vn 0.93087095 0.322427005 0.171812981
vn 0.93087095 0.322427005 0.171812981
vn 0.950885892 0.215337992 0.222363964
vn 0.950885892 0.215337992 0.222363964
vn 0.950885892 0.215337992 0.222363964
vn 0.950167 0.217930004 0.22290799
vn 0.950167 0.217930004 0.22290799
vn 0.950168073 0.217930034 0.22290802
vn 0.957392037 0.124745019 0.260461032
vn 0.957392037 0.124745019 0.260461032
vn 0.957392037 0.124745019 0.260461032
vn 0.958802998 0.117359005 0.25869599
vn 0.958802998 0.117359005 0.25869599
vn 0.958802998 0.117359005 0.25869599
vn 0.958002031 0.0411110036 0.283798039
vn 0.958002031 0.0411110036 0.283798039
vn 0.958002031 0.0411110036 0.283798039
vn 0.960376024 0.020401001 0.277960986
vn 0.960376024 0.020401001 0.277960986
vn 0.960376024 0.020401001 0.277960986
vn 0.955727994 -0.0377780013 0.291817993
vn 0.955727994 -0.0377780013 0.291817993
vn 0.955727994 -0.0377780013 0.291817993
vn 0.957334936 -0.0814689994 0.277258992
vn 0.957334936 -0.0814689994 0.277258992
vn 0.957334936 -0.0814689994 0.277258992
vn 0.953088939 -0.112136997 0.281152993
vn 0.953088939 -0.112136997 0.281152993
vn 0.953088939 -0.112136997 0.281152993
vn 0.950534046 -0.180930033 0.252487987
vn 0.950534046 -0.180930033 0.252487987
vn 0.950534046 -0.180930033 0.252487987
vn 0.932225049 -0.259745032 0.251971036
vn 0.932225049 -0.259745032 0.251971036
vn 0.932225049 -0.259745032 0.251971036
vn 0.961919069 -0.169033021 0.21480301
vn 0.961919069 -0.169033021 0.21480301
vn 0.961919069 -0.169033021 0.21480301
vn 0.932878017 -0.299919039 0.199467003
vn 0.932878017 -0.299919039 0.199467003
vn 0.932878017 -0.299919039 0.199467003
vn 0.964841962 -0.198424011 0.172360986
vn 0.964841962 -0.198424011 0.172360986
vn 0.964841962 -0.198424011 0.172360986
g 
f 1/1/1 2/2/2 3/3/3
f 3/3/4 4/4/5 5/5/6
f 6/6/7 1/1/8 7/7/9
f 6/6/10 7/7/11 8/8/12
f 7/7/13 9/9/14 8/8/15
f 4/4/16 3/3/17 2/2/18
f 2/2/19 1/1/20 6/6/21
f 8/8/22 9/9/23 10/10/24
f 11/11/25 10/10/26 9/9/27
f 10/10/28 11/11/29 12/12/30
f 13/13/31 12/12/32 11/11/33
f 12/12/34 13/13/35 14/14/36
f 15/15/37 14/14/38 13/13/39
f 14/14/40 15/15/41 16/16/42
f 17/17/43 16/16/44 15/15/45
f 16/16/46 17/17/47 18/18/48
f 18/18/49 17/17/50 19/19/51
f 18/18/52 19/19/53 20/20/54
f 21/21/55 20/20/56 19/19/57
f 20/20/58 21/21/59 22/22/60
f 23/23/61 22/22/62 21/21/63
f 22/22/64 23/23/65 24/24/66
f 24/24/67 25/25/68 26/26/69
f 25/25/70 24/24/71 23/23/72
f 26/26/73 25/25/74 27/27/75
f 26/26/76 27/27/77 28/28/78
f 27/27/79 29/29/80 28/28/81
f 28/28/82 29/29/83 30/30/84
f 29/29/85 31/31/86 30/30/87
f 30/30/88 31/31/89 32/32/90
f 31/31/91 33/33/92 32/32/93
f 32/32/94 33/33/95 34/34/96
f 35/35/97 34/34/98 33/33/99
f 34/34/100 35/35/101 36/36/102
f 37/37/103 36/36/104 35/35/105
f 36/36/106 37/37/107 38/38/108
f 37/37/109 39/39/110 38/38/111
f 39/39/112 37/37/113 40/40/114
f 40/40/115 41/41/116 39/39/117
f 41/41/118 40/40/119 42/42/120
